<svg width="975" height="432" viewBox="0 0 975 432" fill="none" xmlns="http://www.w3.org/2000/svg">
<path d="M381.422 430.903C355.229 424.343 336.741 401.096 336.4 374.293C336.222 360.375 338.842 351.201 346.024 340.593C366.884 309.78 411.215 305.458 437.597 331.666C450.073 344.059 453.6 353.254 453.622 373.435C453.638 388.915 453.168 391.494 448.828 399.674C438.792 418.589 420.346 430.616 399.478 431.851C393.128 432.226 385.004 431.802 381.422 430.903ZM405.888 388.661C414.948 382.361 416.445 367.798 408.769 360.638C395.398 348.167 375.181 357.51 377.361 375.152C379.017 388.551 395.096 396.166 405.888 388.661ZM788.037 430.403C770.132 425.369 754.422 410.765 747.675 392.883C743.402 381.559 744.469 359.193 749.796 348.412C756.092 335.67 764.887 326.868 777.47 320.716C787.806 315.663 790.592 315.065 803.793 315.065C816.987 315.065 819.786 315.665 830.113 320.707C851.354 331.079 862.962 349.745 862.905 373.435C862.845 398.143 849.951 417.677 827.068 427.727C817.166 432.075 798.529 433.353 788.037 430.403V430.403ZM816.317 386.451C821.166 382.15 821.964 380.309 821.964 373.435C821.964 366.56 821.166 364.719 816.317 360.418C812.088 356.667 808.947 355.409 803.808 355.409C798.669 355.409 795.527 356.667 791.298 360.418C786.45 364.719 785.651 366.56 785.651 373.435C785.651 380.309 786.45 382.15 791.298 386.451C795.527 390.203 798.669 391.461 803.808 391.461C808.947 391.461 812.088 390.203 816.317 386.451ZM217.607 328.825V298.755H211.472C197.667 298.755 191.638 281.354 201.911 271.155L206.966 266.137H261.655C321.722 266.137 324.131 265.771 328.195 256.031C330.826 249.724 329.258 241.801 324.54 237.559C321.228 234.581 315.729 234.321 239.08 233.518L157.16 232.66L152.406 227.939C145.772 221.35 145.772 211.351 152.407 204.762L157.162 200.041L296.475 199.183L435.788 198.324L439.96 193.508C445.478 187.138 445.478 178.608 439.96 172.24L435.787 167.423L222.128 166.564L8.46822 165.706L4.83163 162.095C2.83153 160.109 0.783255 155.436 0.279948 151.711C-0.478687 146.095 0.158968 144 4.0084 139.458L8.65193 133.979L263.531 133.533L518.41 133.087L523.166 128.366C529.802 121.777 529.802 111.779 523.166 105.19L518.411 100.469L315.7 99.6104C204.21 99.1383 111.938 98.0783 110.652 97.2548C106.071 94.3215 103.154 84.3304 105.137 78.3656C109.1 66.4454 102.13 66.9918 250.215 66.9918C342.328 66.9918 384.719 66.4168 387.567 65.1287C398.046 60.3883 400.054 44.8781 391.095 37.8812C386.71 34.4571 384.582 34.3732 302.049 34.3732C212 34.3732 208.228 34.0532 203.912 26.0476C200.666 20.0247 201.696 10.9312 206.217 5.7131L210.39 0.896264L436.202 0.448132L662.013 0V152.811V305.622H672.388H682.763V190.599V75.5756H757.858H832.953L836.459 80.0008C839.546 83.8962 868.036 113.598 932.666 180.298C943.188 191.157 957.007 205.449 963.376 212.059L974.957 224.076L974.978 291.459L975 358.842L928.744 358.84L882.488 358.839L879.526 348.832C875.373 334.802 864.367 319.249 852.124 310.112C819.762 285.961 776.291 288.979 747.703 317.362C737.732 327.261 728.668 342.658 726.709 353.025L725.609 358.842H599.761H473.914L472.815 353.023C469.366 334.772 449.214 310.695 429.728 301.543C385.605 280.819 332.812 304.397 318.726 351.117L316.656 357.984L267.131 358.439L217.607 358.895V328.825ZM879.62 165.277C847.96 132.465 821.257 105.051 820.281 104.358C819.305 103.664 795.745 103.085 767.927 103.07L717.347 103.044V163.989V224.934H827.266H937.185L879.62 165.277Z" fill="#86C232"/>
</svg>
