<svg width="27" height="28" viewBox="0 0 27 28" fill="none" xmlns="http://www.w3.org/2000/svg">
<path fill-rule="evenodd" clip-rule="evenodd" d="M7.5 6.5498C7.5 4.95851 8.13214 3.43238 9.25736 2.30716C10.3826 1.18195 11.9087 0.549805 13.5 0.549805C15.0913 0.549805 16.6174 1.18195 17.7426 2.30716C18.8679 3.43238 19.5 4.95851 19.5 6.5498C19.5 8.1411 18.8679 9.66723 17.7426 10.7924C16.6174 11.9177 15.0913 12.5498 13.5 12.5498C11.9087 12.5498 10.3826 11.9177 9.25736 10.7924C8.13214 9.66723 7.5 8.1411 7.5 6.5498ZM7.5 15.5498C5.51088 15.5498 3.60322 16.34 2.1967 17.7465C0.790176 19.153 0 21.0607 0 23.0498C0 24.2433 0.474106 25.3879 1.31802 26.2318C2.16193 27.0757 3.30653 27.5498 4.5 27.5498H22.5C23.6935 27.5498 24.8381 27.0757 25.682 26.2318C26.5259 25.3879 27 24.2433 27 23.0498C27 21.0607 26.2098 19.153 24.8033 17.7465C23.3968 16.34 21.4891 15.5498 19.5 15.5498H7.5Z" fill="#fff"/>
</svg>
