<svg width="27" height="27" viewBox="0 0 27 27" fill="none" xmlns="http://www.w3.org/2000/svg">
<path d="M24.6375 21.0973L24.3825 20.8723C23.659 20.2278 23.0258 19.4886 22.5 18.6748C21.9256 17.5517 21.5814 16.3252 21.4875 15.0673V11.3623C21.4924 9.38651 20.7757 7.47691 19.472 5.99228C18.1683 4.50766 16.3673 3.5502 14.4075 3.2998V2.3323C14.4075 2.06676 14.302 1.81208 14.1142 1.62431C13.9264 1.43654 13.6718 1.33105 13.4062 1.33105C13.1407 1.33105 12.886 1.43654 12.6982 1.62431C12.5105 1.81208 12.405 2.06676 12.405 2.3323V3.3148C10.4627 3.58325 8.68345 4.5465 7.39687 6.02613C6.11029 7.50577 5.40352 9.40154 5.40748 11.3623V15.0673C5.31354 16.3252 4.96931 17.5517 4.39498 18.6748C3.87814 19.4866 3.25512 20.2256 2.54248 20.8723L2.28748 21.0973V23.2123H24.6375V21.0973Z" fill="white"/>
<path d="M11.49 24C11.5558 24.4754 11.7913 24.911 12.1532 25.2262C12.5151 25.5415 12.9788 25.7151 13.4587 25.7151C13.9387 25.7151 14.4024 25.5415 14.7643 25.2262C15.1261 24.911 15.3617 24.4754 15.4275 24H11.49Z" fill="white"/>
</svg>
