<svg width="20" height="20" viewBox="0 0 20 20" fill="none" xmlns="http://www.w3.org/2000/svg">
<path d="M10 17.9985C12.1217 17.9985 14.1566 17.1557 15.6569 15.6554C17.1571 14.1551 18 12.1203 18 9.99854C18 7.8768 17.1571 5.84197 15.6569 4.34168C14.1566 2.84139 12.1217 1.99854 10 1.99854C7.87827 1.99854 5.84344 2.84139 4.34315 4.34168C2.84285 5.84197 2 7.8768 2 9.99854C2 12.1203 2.84285 14.1551 4.34315 15.6554C5.84344 17.1557 7.87827 17.9985 10 17.9985ZM10 -0.00146484C11.3132 -0.00146484 12.6136 0.257193 13.8268 0.75974C15.0401 1.26229 16.1425 1.99888 17.0711 2.92747C17.9997 3.85605 18.7362 4.95844 19.2388 6.1717C19.7413 7.38496 20 8.68532 20 9.99854C20 12.6507 18.9464 15.1942 17.0711 17.0696C15.1957 18.945 12.6522 19.9985 10 19.9985C4.47 19.9985 0 15.4985 0 9.99854C0 7.34637 1.05357 4.80283 2.92893 2.92747C4.8043 1.0521 7.34784 -0.00146484 10 -0.00146484ZM10.5 4.99854V10.2485L15 12.9185L14.25 14.1485L9 10.9985V4.99854H10.5Z" fill="#7B8699"/>
</svg>
