<svg width="17" height="17" viewBox="0 0 17 17" fill="none" xmlns="http://www.w3.org/2000/svg">
<path d="M15.4998 10.2501C15.8369 10.2502 16.161 10.3801 16.4049 10.6127C16.6489 10.8453 16.794 11.1628 16.8102 11.4995C16.8264 11.8362 16.7124 12.1662 16.4919 12.4211C16.2715 12.6761 15.9613 12.8364 15.6258 12.869L15.4998 12.8751H4.66821L5.92822 14.1351C6.16689 14.3729 6.30496 14.6934 6.31386 15.0302C6.32275 15.367 6.20178 15.6943 5.97599 15.9444C5.7502 16.1945 5.43689 16.3481 5.10093 16.3736C4.76497 16.399 4.43209 16.2943 4.17121 16.0811L4.07147 15.991L0.72109 12.6397C-0.13116 11.7875 0.42359 10.3498 1.58821 10.2553L1.71071 10.2501H15.4998ZM11.0723 1.01008C11.3019 0.780303 11.6085 0.643813 11.9329 0.627004C12.2573 0.610195 12.5764 0.714262 12.8285 0.919081L12.9282 1.00921L16.2786 4.36046C17.1308 5.21271 16.5761 6.65033 15.4115 6.74483L15.289 6.75008H1.49984C1.16278 6.74991 0.838694 6.62008 0.594751 6.38747C0.350809 6.15487 0.205704 5.83733 0.189506 5.50066C0.173308 5.16398 0.287258 4.83398 0.507743 4.57903C0.728229 4.32408 1.03835 4.16373 1.37384 4.13121L1.49984 4.12508H12.3315L11.0715 2.86508C10.8257 2.61899 10.6876 2.28539 10.6876 1.93758C10.6876 1.58977 10.8266 1.25618 11.0723 1.01008Z" fill="#7B8699"/>
</svg>
