<svg width="312" height="350" viewBox="0 0 312 350" fill="none" xmlns="http://www.w3.org/2000/svg">
<path d="M8 82.5H304M119 156.5V267.5M193 156.5V267.5M26.5 82.5L45 304.5C45 314.313 48.8982 323.724 55.837 330.663C62.7759 337.602 72.187 341.5 82 341.5H230C239.813 341.5 249.224 337.602 256.163 330.663C263.102 323.724 267 314.313 267 304.5L285.5 82.5M100.5 82.5V27C100.5 22.0935 102.449 17.3879 105.919 13.9185C109.388 10.4491 114.093 8.5 119 8.5H193C197.907 8.5 202.612 10.4491 206.081 13.9185C209.551 17.3879 211.5 22.0935 211.5 27V82.5" stroke="black" stroke-width="16" stroke-linecap="round" stroke-linejoin="round"/>
</svg>
